<svg width="26" height="26" viewBox="0 0 26 26" fill="none" xmlns="http://www.w3.org/2000/svg">
<rect width="26" height="26" rx="13" fill="#FF7223"/>
<path d="M8.91667 17.0832H9.73334L14.7646 12.0519L13.9479 11.2353L8.91667 16.2665V17.0832ZM17.2583 11.2061L14.7792 8.75609L15.5958 7.93942C15.8194 7.71581 16.0942 7.604 16.4201 7.604C16.746 7.604 17.0205 7.71581 17.2438 7.93942L18.0604 8.75609C18.284 8.9797 18.4007 9.24959 18.4104 9.56575C18.4201 9.88192 18.3132 10.1516 18.0896 10.3748L17.2583 11.2061ZM8.33334 18.2498C8.16806 18.2498 8.02942 18.1938 7.91742 18.0818C7.80542 17.9698 7.74961 17.8314 7.75 17.6665V16.0186C7.75 15.9408 7.76459 15.8654 7.79375 15.7923C7.82292 15.7191 7.86667 15.6536 7.925 15.5957L13.9333 9.58734L16.4125 12.0665L10.4042 18.0748C10.3458 18.1332 10.2803 18.1769 10.2076 18.2061C10.1349 18.2353 10.0594 18.2498 9.98125 18.2498H8.33334ZM14.3563 11.6436L13.9479 11.2353L14.7646 12.0519L14.3563 11.6436Z" fill="white"/>
</svg>
